<mxfile host="app.diagrams.net" modified="2022-01-30T14:56:17.246Z" agent="5.0 (X11; Linux x86_64) AppleWebKit/537.36 (KHTML, like Gecko) Chrome/96.0.4664.110 Safari/537.36" etag="pN4PiG8iGn--EGL7VGqK" version="16.2.4" type="github">
  <diagram id="UbNqxVZC1guhLLcriv7x" name="Page-1">
    <mxGraphModel dx="556" dy="766" grid="1" gridSize="10" guides="1" tooltips="1" connect="1" arrows="1" fold="1" page="1" pageScale="1" pageWidth="1600" pageHeight="900" background="#ffffff" math="0" shadow="0">
      <root>
        <mxCell id="0" />
        <mxCell id="1" parent="0" />
        <mxCell id="quhVEy0Gu2fzXFc143Mp-4" style="edgeStyle=orthogonalEdgeStyle;rounded=0;orthogonalLoop=1;jettySize=auto;html=1;exitX=0.25;exitY=0;exitDx=0;exitDy=0;entryX=0.25;entryY=1;entryDx=0;entryDy=0;fontSize=15;fillColor=#dae8fc;strokeColor=#6c8ebf;" edge="1" parent="1" source="s_u18fh8TWqF_D3X__ss-1" target="quhVEy0Gu2fzXFc143Mp-1">
          <mxGeometry relative="1" as="geometry" />
        </mxCell>
        <mxCell id="quhVEy0Gu2fzXFc143Mp-5" value="(A)" style="edgeLabel;html=1;align=center;verticalAlign=middle;resizable=0;points=[];fontSize=15;fontColor=#0066CC;" vertex="1" connectable="0" parent="quhVEy0Gu2fzXFc143Mp-4">
          <mxGeometry x="0.5833" y="-1" relative="1" as="geometry">
            <mxPoint y="23" as="offset" />
          </mxGeometry>
        </mxCell>
        <mxCell id="quhVEy0Gu2fzXFc143Mp-15" style="edgeStyle=orthogonalEdgeStyle;rounded=0;orthogonalLoop=1;jettySize=auto;html=1;exitX=1;exitY=0.25;exitDx=0;exitDy=0;entryX=-0.001;entryY=0.735;entryDx=0;entryDy=0;entryPerimeter=0;fontSize=15;startArrow=none;startFill=0;fillColor=#e1d5e7;strokeColor=#9673a6;" edge="1" parent="1" source="s_u18fh8TWqF_D3X__ss-1" target="s_u18fh8TWqF_D3X__ss-4">
          <mxGeometry relative="1" as="geometry" />
        </mxCell>
        <mxCell id="quhVEy0Gu2fzXFc143Mp-17" value="(D) Auth. Code &amp;amp; redirect_uri" style="edgeLabel;html=1;align=center;verticalAlign=middle;resizable=0;points=[];fontSize=15;fontColor=#990099;" vertex="1" connectable="0" parent="quhVEy0Gu2fzXFc143Mp-15">
          <mxGeometry x="-0.3655" y="-1" relative="1" as="geometry">
            <mxPoint x="46" as="offset" />
          </mxGeometry>
        </mxCell>
        <mxCell id="quhVEy0Gu2fzXFc143Mp-16" style="edgeStyle=orthogonalEdgeStyle;rounded=0;orthogonalLoop=1;jettySize=auto;html=1;exitX=1;exitY=0.75;exitDx=0;exitDy=0;entryX=-0.004;entryY=0.912;entryDx=0;entryDy=0;entryPerimeter=0;fontSize=15;startArrow=classic;startFill=1;endArrow=none;endFill=0;fillColor=#ffe6cc;strokeColor=#d79b00;" edge="1" parent="1" source="s_u18fh8TWqF_D3X__ss-1" target="s_u18fh8TWqF_D3X__ss-4">
          <mxGeometry relative="1" as="geometry" />
        </mxCell>
        <mxCell id="quhVEy0Gu2fzXFc143Mp-18" value="(E) Access Token (+ Refresh Token)" style="edgeLabel;html=1;align=center;verticalAlign=middle;resizable=0;points=[];fontSize=15;fontColor=#CC6600;" vertex="1" connectable="0" parent="quhVEy0Gu2fzXFc143Mp-16">
          <mxGeometry x="-0.5593" relative="1" as="geometry">
            <mxPoint x="81" as="offset" />
          </mxGeometry>
        </mxCell>
        <mxCell id="s_u18fh8TWqF_D3X__ss-1" value="&lt;b style=&quot;font-size: 15px;&quot;&gt;Client&lt;/b&gt;" style="rounded=0;whiteSpace=wrap;html=1;fillColor=#dae8fc;strokeColor=#6c8ebf;fontSize=15;fontFamily=Roboto;fontSource=https%3A%2F%2Ffonts.googleapis.com%2Fcss%3Ffamily%3DRoboto;" parent="1" vertex="1">
          <mxGeometry x="80" y="420" width="120" height="100" as="geometry" />
        </mxCell>
        <mxCell id="s_u18fh8TWqF_D3X__ss-2" value="&lt;b style=&quot;font-size: 15px;&quot;&gt;Resource&lt;br style=&quot;font-size: 15px;&quot;&gt;Owner&lt;br style=&quot;font-size: 15px;&quot;&gt;&lt;/b&gt;" style="rounded=0;whiteSpace=wrap;html=1;fillColor=#d5e8d4;strokeColor=#82b366;fontSize=15;fontFamily=Roboto;fontSource=https%3A%2F%2Ffonts.googleapis.com%2Fcss%3Ffamily%3DRoboto;" parent="1" vertex="1">
          <mxGeometry x="80" y="60" width="120" height="100" as="geometry" />
        </mxCell>
        <mxCell id="quhVEy0Gu2fzXFc143Mp-10" style="edgeStyle=orthogonalEdgeStyle;rounded=0;orthogonalLoop=1;jettySize=auto;html=1;entryX=1;entryY=0.75;entryDx=0;entryDy=0;fontSize=15;startArrow=none;startFill=0;fillColor=#f8cecc;strokeColor=#b85450;" edge="1" parent="1" source="s_u18fh8TWqF_D3X__ss-4" target="quhVEy0Gu2fzXFc143Mp-1">
          <mxGeometry relative="1" as="geometry">
            <Array as="points">
              <mxPoint x="390" y="315" />
              <mxPoint x="390" y="315" />
            </Array>
          </mxGeometry>
        </mxCell>
        <mxCell id="quhVEy0Gu2fzXFc143Mp-11" value="(C) Authorization Code" style="edgeLabel;html=1;align=center;verticalAlign=middle;resizable=0;points=[];fontSize=15;fontColor=#CC0000;" vertex="1" connectable="0" parent="quhVEy0Gu2fzXFc143Mp-10">
          <mxGeometry x="0.1905" y="1" relative="1" as="geometry">
            <mxPoint x="23" as="offset" />
          </mxGeometry>
        </mxCell>
        <mxCell id="s_u18fh8TWqF_D3X__ss-4" value="&lt;b style=&quot;font-size: 15px;&quot;&gt;Authorization&lt;br style=&quot;font-size: 15px;&quot;&gt;Server&lt;br style=&quot;font-size: 15px;&quot;&gt;&lt;/b&gt;" style="rounded=0;whiteSpace=wrap;html=1;fillColor=#f8cecc;strokeColor=#b85450;fontSize=15;fontFamily=Roboto;fontSource=https%3A%2F%2Ffonts.googleapis.com%2Fcss%3Ffamily%3DRoboto;" parent="1" vertex="1">
          <mxGeometry x="470" y="240" width="120" height="280" as="geometry" />
        </mxCell>
        <mxCell id="quhVEy0Gu2fzXFc143Mp-2" style="edgeStyle=orthogonalEdgeStyle;rounded=0;orthogonalLoop=1;jettySize=auto;html=1;entryX=-0.004;entryY=0.091;entryDx=0;entryDy=0;entryPerimeter=0;fillColor=#dae8fc;strokeColor=#6c8ebf;" edge="1" parent="1" source="quhVEy0Gu2fzXFc143Mp-1" target="s_u18fh8TWqF_D3X__ss-4">
          <mxGeometry relative="1" as="geometry">
            <Array as="points">
              <mxPoint x="270" y="265" />
              <mxPoint x="270" y="265" />
            </Array>
          </mxGeometry>
        </mxCell>
        <mxCell id="quhVEy0Gu2fzXFc143Mp-3" value="&lt;font style=&quot;font-size: 15px&quot;&gt;(A) client_id and redirect_uri&lt;/font&gt;" style="edgeLabel;html=1;align=center;verticalAlign=middle;resizable=0;points=[];fontColor=#0066CC;" vertex="1" connectable="0" parent="quhVEy0Gu2fzXFc143Mp-2">
          <mxGeometry x="-0.7662" relative="1" as="geometry">
            <mxPoint x="98" as="offset" />
          </mxGeometry>
        </mxCell>
        <mxCell id="quhVEy0Gu2fzXFc143Mp-6" style="edgeStyle=orthogonalEdgeStyle;rounded=0;orthogonalLoop=1;jettySize=auto;html=1;entryX=0.5;entryY=1;entryDx=0;entryDy=0;fontSize=15;startArrow=classic;startFill=1;fillColor=#d5e8d4;strokeColor=#82b366;" edge="1" parent="1" source="quhVEy0Gu2fzXFc143Mp-1" target="s_u18fh8TWqF_D3X__ss-2">
          <mxGeometry relative="1" as="geometry" />
        </mxCell>
        <mxCell id="quhVEy0Gu2fzXFc143Mp-7" value="(B)" style="edgeLabel;html=1;align=center;verticalAlign=middle;resizable=0;points=[];fontSize=15;fontColor=#009900;" vertex="1" connectable="0" parent="quhVEy0Gu2fzXFc143Mp-6">
          <mxGeometry x="-0.125" relative="1" as="geometry">
            <mxPoint y="-5" as="offset" />
          </mxGeometry>
        </mxCell>
        <mxCell id="quhVEy0Gu2fzXFc143Mp-8" style="edgeStyle=orthogonalEdgeStyle;rounded=0;orthogonalLoop=1;jettySize=auto;html=1;entryX=-0.017;entryY=0.176;entryDx=0;entryDy=0;entryPerimeter=0;fontSize=15;startArrow=none;startFill=0;fillColor=#d5e8d4;strokeColor=#82b366;" edge="1" parent="1" source="quhVEy0Gu2fzXFc143Mp-1" target="s_u18fh8TWqF_D3X__ss-4">
          <mxGeometry relative="1" as="geometry" />
        </mxCell>
        <mxCell id="quhVEy0Gu2fzXFc143Mp-9" value="(B) User authenticates" style="edgeLabel;html=1;align=center;verticalAlign=middle;resizable=0;points=[];fontSize=15;fontColor=#009900;" vertex="1" connectable="0" parent="quhVEy0Gu2fzXFc143Mp-8">
          <mxGeometry x="-0.2817" relative="1" as="geometry">
            <mxPoint x="34" as="offset" />
          </mxGeometry>
        </mxCell>
        <mxCell id="quhVEy0Gu2fzXFc143Mp-12" style="edgeStyle=orthogonalEdgeStyle;rounded=0;orthogonalLoop=1;jettySize=auto;html=1;entryX=0.75;entryY=0;entryDx=0;entryDy=0;fontSize=15;startArrow=none;startFill=0;fillColor=#f8cecc;strokeColor=#b85450;" edge="1" parent="1" source="quhVEy0Gu2fzXFc143Mp-1" target="s_u18fh8TWqF_D3X__ss-1">
          <mxGeometry relative="1" as="geometry">
            <Array as="points">
              <mxPoint x="170" y="360" />
              <mxPoint x="170" y="360" />
            </Array>
          </mxGeometry>
        </mxCell>
        <mxCell id="quhVEy0Gu2fzXFc143Mp-13" value="(C)" style="edgeLabel;html=1;align=center;verticalAlign=middle;resizable=0;points=[];fontSize=15;fontColor=#CC0000;" vertex="1" connectable="0" parent="quhVEy0Gu2fzXFc143Mp-12">
          <mxGeometry x="-0.3" relative="1" as="geometry">
            <mxPoint y="12" as="offset" />
          </mxGeometry>
        </mxCell>
        <mxCell id="quhVEy0Gu2fzXFc143Mp-1" value="&lt;b style=&quot;font-size: 15px&quot;&gt;User&lt;br&gt;Agent&lt;br&gt;&lt;/b&gt;" style="rounded=0;whiteSpace=wrap;html=1;fillColor=#e1d5e7;strokeColor=#9673a6;fontSize=15;fontFamily=Roboto;fontSource=https%3A%2F%2Ffonts.googleapis.com%2Fcss%3Ffamily%3DRoboto;" vertex="1" parent="1">
          <mxGeometry x="80" y="240" width="120" height="100" as="geometry" />
        </mxCell>
      </root>
    </mxGraphModel>
  </diagram>
</mxfile>
